<svg width="256" height="256" viewBox="0 0 256 256" fill="none" xmlns="http://www.w3.org/2000/svg">
<path d="M102.405 55.0376C135.922 53.7657 160.809 84.9748 141.126 115.447C135.618 123.979 128.293 125.89 123.274 131.751C120.294 135.225 121.109 137.144 122.244 141.056C125.024 150.636 130.71 165.37 134.624 174.742C136.908 180.216 139.903 187.669 145.589 179.427C155.19 153.752 156.65 117.456 168.919 93.4985C179.032 73.7586 201.524 74.4131 208.196 96.4662C210.413 103.792 213.838 127.579 218.991 131.751C222.942 134.949 243.263 131.134 250.298 133.811C259.105 137.158 257.178 147.928 248.163 149.208C241.009 150.219 221.178 149.78 214.513 147.393C195.245 140.491 199.352 115.99 191.657 101.896C186.638 92.6952 182.345 103.502 180.759 108.374C173.872 129.564 169.928 153.12 163.863 174.727C161.031 184.827 159.386 195.768 148.502 200.224C143.402 202.314 139.139 202.648 133.898 200.752C116.721 194.548 113.266 151.855 101.041 137.025C98.6018 134.064 95.2583 133.611 95.0507 128.843C94.7023 120.87 102.079 122.208 107.394 120.304C122.147 115.023 135.951 101.68 128.634 84.7963C124.142 74.4428 112.599 70.9991 102.146 71.8991C99.2616 72.1446 95.8885 72.509 94.554 75.4469L79.5935 133.328C76.9542 140.178 69.6741 145.548 62.9055 147.824C52.5266 151.313 17.9349 151.082 6.57731 149.237C-2.59327 147.75 -1.82226 135.098 6.70334 133.09C22.0494 131.565 39.6566 134.54 54.721 132.919C59.8289 132.368 62.7795 129.669 64.5217 124.901C70.6453 108.173 72.773 86.8863 78.133 69.3851C79.3192 65.5026 79.7714 62.23 83.3151 59.7085C87.5482 56.6962 97.2451 55.231 102.405 55.0376Z" fill="white"/>
</svg>
