<svg width="256" height="256" viewBox="0 0 256 256" fill="none" xmlns="http://www.w3.org/2000/svg">
<rect width="256" height="256" fill="#131313"/>
<path d="M112.003 82.0235C132.951 81.2275 148.506 100.76 136.204 119.831C132.761 125.17 128.183 126.367 125.046 130.035C123.184 132.209 123.693 133.41 124.402 135.858C126.14 141.854 129.694 151.075 132.14 156.94C133.567 160.366 135.439 165.031 138.993 159.873C144.993 143.804 145.906 121.088 153.575 106.094C159.895 93.74 173.953 94.1497 178.123 107.952C179.508 112.537 181.649 127.423 184.869 130.035C187.339 132.036 200.039 129.648 204.436 131.324C209.941 133.419 208.736 140.159 203.102 140.96C198.631 141.593 186.236 141.318 182.071 139.824C170.028 135.504 172.595 120.171 167.786 111.35C164.649 105.592 161.966 112.355 160.974 115.404C156.67 128.666 154.205 143.408 150.415 156.931C148.645 163.252 147.616 170.1 140.814 172.888C137.626 174.196 134.962 174.406 131.686 173.219C120.95 169.336 118.791 142.617 111.151 133.335C109.626 131.482 107.536 131.198 107.407 128.215C107.189 123.225 111.799 124.062 115.121 122.871C124.342 119.566 132.97 111.215 128.396 100.648C125.588 94.1683 118.374 92.0131 111.841 92.5763C110.039 92.7299 107.93 92.958 107.096 94.7967L97.7459 131.022C96.0964 135.309 91.5463 138.67 87.316 140.094C80.8291 142.277 59.2093 142.133 52.1108 140.978C46.3792 140.048 46.8611 132.129 52.1896 130.873C61.7809 129.918 72.7854 131.78 82.2006 130.766C85.3931 130.421 87.2372 128.731 88.3261 125.747C92.1533 115.279 93.4831 101.956 96.8331 91.0029C97.5745 88.5731 97.8571 86.5249 100.072 84.9468C102.718 83.0616 108.778 82.1446 112.003 82.0235Z" fill="white"/>
</svg>
